# xmcd
#
# Track frame offsets:
#	182
#	9115
#	21515
#	31240
#	43252
#	53772
#	65432
#	76847
#	88087
#	99427
#	109302
#	118067
#	129680
#	142415
#	156527
#	167740
#
# Disc length: 2394 seconds
#
# Revision: 2
# Processed by: cddbd v1.5.2PL0 Copyright (c) Steve Scherf et al.
# Submitted via: EasyCDDAExtractor 11.1.0.1
#
DISCID=de095810
DTITLE=Various Artist - Country Music Collection
DYEAR=1900
DGENRE=Country
TTITLE0=Burl Ives - A Little Bitty Tear 
TTITLE1=Lynn Anderson - Listen To A Country Song 
TTITLE2=Willie Nelson - Building Heartaches
TTITLE3=Wanda Jackson - Right Or Wrong 
TTITLE4=George Hamilton IV - Abilen
TTITLE5=Kenny Rogers and the First Edition - A Poem For My Little Lady 
TTITLE6=Charly Pride - The Happiness Of Having You 
TTITLE7=George Jones - I'll Share My World With You 
TTITLE8=Don Gibson - Oh, Lonesome Me 
TTITLE9=Ricky Nelson - Poor Little Fool
TTITLE10=Loretta Lynn - They Don't Make 'em Like My Daddy Anymore 
TTITLE11=Johnny Cash - Hey Good Lookin
TTITLE12=Claude King - Wolverton Mountain 
TTITLE13=Billie Jo Spears - Mr. Walker, It's All Over 
TTITLE14=Waylon Jennings - Sally Was A Good Old Girl
TTITLE15=Donna Fargo - U.S. Of America 
EXTD=
EXTT0=
EXTT1=
EXTT2=
EXTT3=
EXTT4=
EXTT5=
EXTT6=
EXTT7=
EXTT8=
EXTT9=
EXTT10=
EXTT11=
EXTT12=
EXTT13=
EXTT14=
EXTT15=
PLAYORDER=
